<svg width="449" height="455" viewBox="0 0 449 455" fill="none" xmlns="http://www.w3.org/2000/svg">
<g filter="url(#filter0_f_1002_29)">
<path fill-rule="evenodd" clip-rule="evenodd" d="M208.602 43.8842C253.898 52.3721 270.234 105.17 303.708 136.844C339.116 170.348 407.118 183.205 407.36 231.95C407.602 280.678 340.636 295.142 304.658 328.006C271.757 358.058 253.162 413.558 208.602 413.5C164.049 413.442 141.47 361.855 112.798 327.755C87.9554 298.209 62.9343 269.916 55.9541 231.95C47.2042 184.36 39.1389 130.552 69.6335 92.9818C101.82 53.3275 158.403 34.4775 208.602 43.8842Z" fill="#6B9543"/>
<path fill-rule="evenodd" clip-rule="evenodd" d="M211.665 91.6556C239.501 98.3952 254.089 125.339 274.016 145.911C293.375 165.897 323.17 180.474 324.613 208.262C326.085 236.591 300 256.518 280.849 277.446C260.283 299.919 241.899 327.957 211.665 331.684C178.917 335.721 144.661 321.813 123.027 296.899C102.454 273.206 106.717 239.562 104.495 208.262C101.984 172.898 85.486 132.176 109.476 106.073C133.676 79.7435 176.908 83.2403 211.665 91.6556Z" fill="#E9F4CA"/>
<path fill-rule="evenodd" clip-rule="evenodd" d="M178.126 141.316C199.547 125.144 179.315 80.8929 200.826 64.8413C216.465 53.1711 245.012 67.0095 255.814 83.3455C269.426 103.933 253.39 132.95 261.311 156.322C264.76 166.497 277.325 170.496 286.956 175.233C312.292 187.696 355.165 180.353 364.439 207.053C371.89 228.506 329.186 234.405 313.007 250.235C302.481 260.534 292.25 271.112 285.551 284.24C274.96 304.996 285.646 348.013 262.396 349.422C234.992 351.083 234.686 292.582 207.453 288.972C181.231 285.497 169.453 333.929 143.014 333.599C122.92 333.348 112.965 306.076 104.72 287.691C96.9531 270.374 91.9229 250.018 97.3949 231.882C102.892 213.663 131.556 208.156 134.399 189.329C137.506 168.753 98.5684 146.843 112.554 131.486C127.584 114.983 160.317 154.763 178.126 141.316Z" fill="#C8D987" fill-opacity="0.55"/>
</g>
<path fill-rule="evenodd" clip-rule="evenodd" d="M208.602 43.8842C253.898 52.3721 270.234 105.17 303.708 136.844C339.116 170.348 407.118 183.205 407.36 231.95C407.602 280.678 340.636 295.142 304.658 328.006C271.757 358.058 253.162 413.558 208.602 413.5C164.049 413.442 141.47 361.855 112.798 327.755C87.9554 298.209 62.9343 269.916 55.9541 231.95C47.2042 184.36 39.1389 130.552 69.6335 92.9818C101.82 53.3275 158.403 34.4775 208.602 43.8842Z" fill="#6B9543"/>
<path fill-rule="evenodd" clip-rule="evenodd" d="M211.665 91.6556C239.501 98.3952 254.089 125.339 274.016 145.911C293.375 165.897 323.17 180.474 324.613 208.262C326.085 236.591 300 256.518 280.849 277.446C260.283 299.919 241.899 327.957 211.665 331.684C178.917 335.721 144.661 321.813 123.027 296.899C102.454 273.206 106.717 239.562 104.495 208.262C101.984 172.898 85.486 132.176 109.476 106.073C133.676 79.7435 176.908 83.2403 211.665 91.6556Z" fill="#E9F4CA"/>
<path fill-rule="evenodd" clip-rule="evenodd" d="M178.126 141.316C199.547 125.144 179.315 80.8929 200.826 64.8413C216.465 53.1711 245.012 67.0095 255.814 83.3455C269.426 103.933 253.39 132.95 261.311 156.322C264.76 166.497 277.325 170.496 286.956 175.233C312.292 187.696 355.165 180.353 364.439 207.053C371.89 228.506 329.186 234.405 313.007 250.235C302.481 260.534 292.25 271.112 285.551 284.24C274.96 304.996 285.646 348.013 262.396 349.422C234.992 351.083 234.686 292.582 207.453 288.972C181.231 285.497 169.453 333.929 143.014 333.599C122.92 333.348 112.965 306.076 104.72 287.691C96.9531 270.374 91.9229 250.018 97.3949 231.882C102.892 213.663 131.556 208.156 134.399 189.329C137.506 168.753 98.5684 146.843 112.554 131.486C127.584 114.983 160.317 154.763 178.126 141.316Z" fill="#C8D987" fill-opacity="0.55"/>
<defs>
<filter id="filter0_f_1002_29" x="6.5" y="0" width="442.361" height="455" filterUnits="userSpaceOnUse" color-interpolation-filters="sRGB">
<feFlood flood-opacity="0" result="BackgroundImageFix"/>
<feBlend mode="normal" in="SourceGraphic" in2="BackgroundImageFix" result="shape"/>
<feGaussianBlur stdDeviation="20.75" result="effect1_foregroundBlur_1002_29"/>
</filter>
</defs>
</svg>
